<svg width="17" height="17" viewBox="0 0 17 17" fill="none" xmlns="http://www.w3.org/2000/svg">
<path d="M8.125 0C6.02425 3.83531e-05 4.00516 0.813726 2.4914 2.27033C0.977645 3.72693 0.0868831 5.71322 0.00602648 7.81241C-0.0748301 9.9116 0.660504 11.9605 2.05773 13.5293C3.45496 15.098 5.40548 16.0646 7.5 16.2262V10.0001H5.625C5.45924 10.0001 5.30027 9.93423 5.18306 9.81701C5.06585 9.6998 5 9.54083 5 9.37507C5 9.20931 5.06585 9.05034 5.18306 8.93313C5.30027 8.81592 5.45924 8.75007 5.625 8.75007H7.5V6.87507C7.50076 6.21226 7.76439 5.57682 8.23307 5.10814C8.70174 4.63947 9.33719 4.37583 10 4.37507H11.25C11.4158 4.37507 11.5747 4.44092 11.6919 4.55813C11.8091 4.67534 11.875 4.83431 11.875 5.00007C11.875 5.16583 11.8091 5.3248 11.6919 5.44201C11.5747 5.55923 11.4158 5.62507 11.25 5.62507H10C9.66859 5.62545 9.35087 5.75727 9.11653 5.99161C8.88219 6.22595 8.75038 6.54367 8.75 6.87507V8.75007H10.625C10.7908 8.75007 10.9497 8.81592 11.0669 8.93313C11.1841 9.05034 11.25 9.20931 11.25 9.37507C11.25 9.54083 11.1841 9.6998 11.0669 9.81701C10.9497 9.93423 10.7908 10.0001 10.625 10.0001H8.75V16.2262C10.8445 16.0646 12.795 15.098 14.1922 13.5292C15.5895 11.9605 16.3248 9.9116 16.2439 7.81241C16.1631 5.71322 15.2723 3.72694 13.7586 2.27034C12.2448 0.813738 10.2257 4.62033e-05 8.125 0V0Z" fill="#6B6768"/>
</svg>
