<svg width="16" height="16" viewBox="0 0 16 16" fill="none" xmlns="http://www.w3.org/2000/svg">
<path d="M7.8125 10.3125C9.19321 10.3125 10.3125 9.19321 10.3125 7.8125C10.3125 6.43179 9.19321 5.3125 7.8125 5.3125C6.43179 5.3125 5.3125 6.43179 5.3125 7.8125C5.3125 9.19321 6.43179 10.3125 7.8125 10.3125Z" fill="#6B6768"/>
<path d="M11.25 0H4.375C3.21508 0.00131365 2.10305 0.462672 1.28286 1.28286C0.462672 2.10305 0.00131365 3.21508 0 4.375V11.25C0.00131365 12.4099 0.462672 13.522 1.28286 14.3421C2.10305 15.1623 3.21508 15.6237 4.375 15.625H11.25C12.4099 15.6237 13.522 15.1623 14.3421 14.3421C15.1623 13.522 15.6237 12.4099 15.625 11.25V4.375C15.6237 3.21508 15.1623 2.10305 14.3421 1.28286C13.522 0.462672 12.4099 0.00131365 11.25 0V0ZM7.8125 11.5625C7.07082 11.5625 6.3458 11.3426 5.72911 10.9305C5.11243 10.5185 4.63178 9.93279 4.34795 9.24756C4.06412 8.56234 3.98986 7.80834 4.13456 7.08091C4.27925 6.35348 4.6364 5.6853 5.16085 5.16085C5.6853 4.6364 6.35348 4.27925 7.08091 4.13456C7.80834 3.98986 8.56234 4.06412 9.24756 4.34795C9.93279 4.63178 10.5185 5.11243 10.9305 5.72911C11.3426 6.3458 11.5625 7.07082 11.5625 7.8125C11.5614 8.80672 11.1659 9.75989 10.4629 10.4629C9.75989 11.1659 8.80672 11.5614 7.8125 11.5625V11.5625ZM11.875 4.6875C11.6896 4.6875 11.5083 4.63252 11.3542 4.5295C11.2 4.42649 11.0798 4.28007 11.0089 4.10877C10.9379 3.93746 10.9193 3.74896 10.9555 3.5671C10.9917 3.38525 11.081 3.2182 11.2121 3.08709C11.3432 2.95598 11.5102 2.86669 11.6921 2.83051C11.874 2.79434 12.0625 2.81291 12.2338 2.88386C12.4051 2.95482 12.5515 3.07498 12.6545 3.22915C12.7575 3.38332 12.8125 3.56458 12.8125 3.75C12.8125 3.99864 12.7137 4.2371 12.5379 4.41291C12.3621 4.58873 12.1236 4.6875 11.875 4.6875Z" fill="#6B6768"/>
</svg>
