<svg width="15" height="15" viewBox="0 0 15 15" fill="none" xmlns="http://www.w3.org/2000/svg">
<path d="M13.75 0H1.25C0.918596 0.000379014 0.600874 0.132197 0.366535 0.366535C0.132197 0.600874 0.000379014 0.918596 0 1.25V13.75C0.000379014 14.0814 0.132197 14.3991 0.366535 14.6335C0.600874 14.8678 0.918596 14.9996 1.25 15H13.75C14.0814 14.9996 14.3991 14.8678 14.6335 14.6335C14.8678 14.3991 14.9996 14.0814 15 13.75V1.25C14.9996 0.918596 14.8678 0.600874 14.6335 0.366535C14.3991 0.132197 14.0814 0.000379014 13.75 0ZM5 11.2501C5 11.4158 4.93415 11.5748 4.81694 11.692C4.69973 11.8092 4.54076 11.8751 4.375 11.8751C4.20924 11.8751 4.05027 11.8092 3.93306 11.692C3.81585 11.5748 3.75 11.4158 3.75 11.2501V6.25007C3.75 6.08431 3.81585 5.92534 3.93306 5.80813C4.05027 5.69092 4.20924 5.62507 4.375 5.62507C4.54076 5.62507 4.69973 5.69092 4.81694 5.80813C4.93415 5.92534 5 6.08431 5 6.25007V11.2501ZM4.375 4.68757C4.18958 4.68757 4.00832 4.63259 3.85415 4.52958C3.69998 4.42656 3.57982 4.28014 3.50886 4.10884C3.43791 3.93753 3.41934 3.74903 3.45551 3.56718C3.49169 3.38532 3.58098 3.21827 3.71209 3.08716C3.8432 2.95605 4.01025 2.86676 4.1921 2.83059C4.37396 2.79441 4.56246 2.81298 4.73377 2.88394C4.90507 2.95489 5.05149 3.07506 5.1545 3.22923C5.25752 3.3834 5.3125 3.56465 5.3125 3.75007C5.3125 3.99871 5.21373 4.23717 5.03791 4.41299C4.8621 4.5888 4.62364 4.68757 4.375 4.68757V4.68757ZM11.875 11.2501C11.875 11.4158 11.8092 11.5748 11.6919 11.692C11.5747 11.8092 11.4158 11.8751 11.25 11.8751C11.0842 11.8751 10.9253 11.8092 10.8081 11.692C10.6908 11.5748 10.625 11.4158 10.625 11.2501V8.43757C10.625 8.02317 10.4604 7.62574 10.1674 7.33272C9.87433 7.03969 9.4769 6.87507 9.0625 6.87507C8.6481 6.87507 8.25067 7.03969 7.95765 7.33272C7.66462 7.62574 7.5 8.02317 7.5 8.43757V11.2501C7.5 11.4158 7.43415 11.5748 7.31694 11.692C7.19973 11.8092 7.04076 11.8751 6.875 11.8751C6.70924 11.8751 6.55027 11.8092 6.43306 11.692C6.31585 11.5748 6.25 11.4158 6.25 11.2501V6.25007C6.24995 6.09644 6.3065 5.94817 6.40886 5.8336C6.51122 5.71903 6.65221 5.64619 6.80488 5.629C6.95755 5.61181 7.1112 5.65147 7.23647 5.74041C7.36175 5.82935 7.44986 5.96132 7.48398 6.11112C7.90665 5.82389 8.39964 5.6573 8.90991 5.6293C9.42018 5.60129 9.92843 5.71292 10.38 5.95217C10.8316 6.19142 11.2094 6.54925 11.4728 6.98717C11.7362 7.42509 11.8753 7.92653 11.875 8.43757V11.2501Z" fill="#6B6768"/>
</svg>
