<svg width="20" height="15" viewBox="0 0 20 15" fill="none" xmlns="http://www.w3.org/2000/svg">
<path d="M19.4991 0.732126C19.4988 0.718256 19.4981 0.704408 19.497 0.690583C19.4961 0.6793 19.495 0.668092 19.4936 0.656961C19.492 0.644005 19.49 0.63112 19.4877 0.618257C19.4857 0.606607 19.4834 0.595048 19.4809 0.583604C19.4781 0.571427 19.4749 0.559365 19.4715 0.547303C19.4683 0.535722 19.4649 0.524209 19.4611 0.512857C19.4572 0.501092 19.4529 0.489488 19.4483 0.477907C19.444 0.46676 19.4395 0.455705 19.4347 0.444833C19.4296 0.433458 19.4241 0.422265 19.4184 0.411096C19.413 0.400384 19.4074 0.389787 19.4015 0.379395C19.3955 0.368775 19.389 0.358339 19.3824 0.347948C19.3757 0.337327 19.3687 0.32689 19.3614 0.316635C19.3547 0.307114 19.3477 0.297776 19.3404 0.288483C19.3321 0.277932 19.3236 0.267677 19.3148 0.257584C19.3107 0.252869 19.3071 0.247856 19.3029 0.24321C19.2993 0.239273 19.2953 0.235931 19.2916 0.232109C19.2826 0.222634 19.2732 0.213501 19.2637 0.204506C19.2548 0.196175 19.2459 0.187935 19.2368 0.180107C19.2278 0.172394 19.2185 0.165115 19.2091 0.157837C19.1988 0.149868 19.1886 0.141975 19.1781 0.134629C19.1689 0.128243 19.1594 0.122315 19.15 0.116341C19.1388 0.109291 19.1277 0.102264 19.1163 0.0958557C19.1063 0.0902485 19.096 0.08519 19.0857 0.0800178C19.0745 0.0744097 19.0633 0.0687564 19.0519 0.0637211C19.0405 0.0587083 19.0288 0.0543368 19.0172 0.0498734C19.0064 0.0457765 18.9956 0.0415875 18.9847 0.037994C18.9722 0.0338747 18.9595 0.0304183 18.9467 0.0269626C18.936 0.0240564 18.9253 0.0211034 18.9145 0.0186771C18.9018 0.0158393 18.8889 0.0135958 18.8759 0.0113983C18.8644 0.009453 18.853 0.00755435 18.8415 0.00613403C18.8292 0.00462372 18.8168 0.00363944 18.8044 0.00274694C18.7918 0.001831 18.7791 0.00109902 18.7665 0.000824332C18.7609 0.000709957 18.7555 0 18.75 0H0.750004C0.744877 0 0.739932 0.000663823 0.734806 0.000778198C0.721164 0.00105289 0.707619 0.00180939 0.694019 0.00284064C0.682437 0.00368439 0.670947 0.00460324 0.659549 0.00597668C0.647098 0.00748699 0.634738 0.00952424 0.622379 0.0116533C0.610294 0.0137355 0.598209 0.0158186 0.586307 0.0184511C0.574682 0.0210602 0.563236 0.0242187 0.5517 0.0273771C0.539707 0.0306499 0.527713 0.0339002 0.515949 0.0377684C0.504324 0.0415681 0.492969 0.0459853 0.481525 0.0503569C0.470493 0.0546141 0.459415 0.0587569 0.448612 0.0634951C0.436705 0.0687132 0.425037 0.0746187 0.413319 0.0805006C0.403475 0.085445 0.393631 0.0902965 0.384069 0.0956758C0.372304 0.102245 0.36086 0.109457 0.349416 0.116709C0.34026 0.1225 0.33106 0.128241 0.322179 0.134448C0.311421 0.141933 0.300984 0.149966 0.290593 0.158092C0.281346 0.165256 0.272191 0.17242 0.263356 0.179996C0.25411 0.187892 0.245183 0.1962 0.236257 0.204624C0.226734 0.213573 0.217442 0.222659 0.208378 0.232092C0.204716 0.235936 0.200734 0.239279 0.197118 0.243216C0.192861 0.247862 0.189337 0.252872 0.185212 0.257589C0.176423 0.267683 0.167908 0.277933 0.159623 0.288489C0.152345 0.297781 0.145341 0.30712 0.138565 0.316641C0.131288 0.326895 0.124329 0.337331 0.1176 0.347953C0.110963 0.358345 0.104554 0.368781 0.0985116 0.379401C0.0925604 0.389792 0.0870217 0.40039 0.0815739 0.411102C0.0758982 0.422271 0.0704045 0.433464 0.0653232 0.444838C0.0604717 0.455713 0.0560307 0.466766 0.0516826 0.477913C0.0471507 0.489493 0.0428016 0.501098 0.038911 0.512862C0.0351113 0.524215 0.0317241 0.535728 0.0284738 0.547309C0.0251316 0.559371 0.0219273 0.571433 0.0191354 0.58361C0.0165714 0.595054 0.0143288 0.606613 0.0122691 0.618263C0.00997977 0.631125 0.00796604 0.644011 0.00636292 0.656966C0.00498792 0.668113 0.00387383 0.67932 0.0030207 0.690589C0.00192195 0.704436 0.00121999 0.718284 0.000914991 0.732132C0.000778116 0.738132 0 0.743965 0 0.750007V13.5C0.000454817 13.8977 0.158636 14.279 0.439842 14.5602C0.721048 14.8414 1.10232 14.9995 1.5 15H18C18.3977 14.9995 18.779 14.8414 19.0602 14.5602C19.3414 14.279 19.4995 13.8977 19.5 13.5V0.750001C19.5 0.743959 19.4992 0.738122 19.4991 0.732126ZM18 13.5H1.50001V2.45499L9.24318 9.55289C9.38152 9.67967 9.56236 9.75 9.75001 9.75C9.93767 9.75 10.1185 9.67967 10.2568 9.55289L18.0001 2.45485L18.0009 13.5L18 13.5Z" fill="#6B6768"/>
</svg>
