<svg width="19" height="16" viewBox="0 0 19 16" fill="none" xmlns="http://www.w3.org/2000/svg">
<path d="M18.4715 2.04251C18.3927 1.93711 18.2827 1.85928 18.1571 1.8201C18.0314 1.78091 17.8967 1.78239 17.7719 1.82431C17.0053 2.08211 16.2086 2.24005 15.4015 2.2942C14.9459 1.65277 14.3 1.1709 13.5554 0.916781C12.8108 0.662664 12.0051 0.64918 11.2524 0.878237C10.4997 1.10729 9.83806 1.56729 9.36121 2.19311C8.88435 2.81893 8.61641 3.57888 8.5953 4.36539C7.37578 4.1178 6.21795 3.62929 5.18966 2.92847C4.16137 2.22764 3.28331 1.32862 2.60695 0.284086C2.54132 0.183244 2.44798 0.103489 2.33813 0.0543959C2.22828 0.00530272 2.1066 -0.0110413 1.9877 0.00732595C1.86879 0.0256932 1.75771 0.077991 1.6678 0.15794C1.57788 0.23789 1.51296 0.342092 1.48081 0.458037C0.931555 2.44342 0.970348 4.54554 1.59249 6.5093C2.21462 8.47306 3.39336 10.214 4.98564 11.521C3.64581 12.2584 2.1453 12.6552 0.616099 12.6766C0.478331 12.6787 0.345105 12.7262 0.237105 12.8117C0.129106 12.8973 0.052375 13.0161 0.0188267 13.1498C-0.0147217 13.2834 -0.00321056 13.4244 0.0515727 13.5508C0.106356 13.6772 0.201346 13.782 0.321795 13.8489C1.88826 14.7161 3.64843 15.1734 5.4389 15.1785C7.22937 15.1835 8.99209 14.7361 10.5634 13.8778C12.1347 13.0194 13.4637 11.778 14.427 10.2687C15.3903 8.75946 15.9566 7.03127 16.0734 5.2446C17.0061 4.55868 17.8201 3.72449 18.483 2.77524C18.5584 2.66745 18.598 2.53859 18.5959 2.40702C18.5939 2.27545 18.5503 2.14789 18.4715 2.04251V2.04251Z" fill="#6B6768"/>
</svg>
